<?xml version="1.0" standalone="no"?><svg xmlns="http://www.w3.org/2000/svg" viewBox="0 0 1440 320"><path fill="#ff5500" fill-opacity="1" d="M0,160L26.7,170.7C53.3,181,107,203,160,176C213.3,149,267,75,320,90.7C373.3,107,427,213,480,245.3C533.3,277,587,235,640,234.7C693.3,235,747,277,800,298.7C853.3,320,907,320,960,288C1013.3,256,1067,192,1120,144C1173.3,96,1227,64,1280,69.3C1333.3,75,1387,117,1413,138.7L1440,160L1440,320L1413.3,320C1386.7,320,1333,320,1280,320C1226.7,320,1173,320,1120,320C1066.7,320,1013,320,960,320C906.7,320,853,320,800,320C746.7,320,693,320,640,320C586.7,320,533,320,480,320C426.7,320,373,320,320,320C266.7,320,213,320,160,320C106.7,320,53,320,27,320L0,320Z"></path></svg>